<svg width="50" height="24" viewBox="0 0 50 24" fill="none" xmlns="http://www.w3.org/2000/svg">
<path d="M12.3337 3.76061C12.8454 4.28292 13.1013 4.95408 13.1013 5.77149V10.9423L10.3122 15.6953L13.1013 17.9935V23.9217L7.98362 19.6387L6.44831 22.2764C6.15916 22.7804 5.75742 23.1774 5.24565 23.4646C4.73388 23.7519 4.17861 23.8955 3.58239 23.8955H0L4.40123 16.6616L0.562948 13.4494L1.81679 7.67791H0.307063V2.97715H2.86592L3.32651 0.835691H7.90686L7.44626 2.97715H10.3634C11.1643 2.97715 11.8219 3.2383 12.3337 3.76061ZM5.52712 11.7258L6.78096 12.7443L8.62333 9.71491V7.67791H6.42272L5.52712 11.7258ZM24.1044 1.59304V20.6834C24.1044 21.5713 23.8229 22.3025 23.26 22.877C22.697 23.4516 21.9806 23.7388 21.1105 23.7388H13.741V1.59304H24.1044ZM19.6264 6.03264H18.219V19.2992H18.8332C19.0558 19.2992 19.2426 19.2209 19.3961 19.0642C19.5496 18.9075 19.6264 18.7169 19.6264 18.4897V6.03264Z" fill="#2F54EB"/>
<path d="M25.87 23.5299L27.1494 19.8215H31.0901L29.8106 23.5299H25.87ZM36.8731 10.0022L37.0522 10.6812H42.4514V13.1621H26.0747V10.6812H31.8065L31.6274 10.0022H36.8731ZM36.8987 19.1687V21.1012C36.8987 21.9186 36.6428 22.5898 36.131 23.1121C35.6192 23.6344 34.9616 23.8955 34.1607 23.8955H31.1924V20.8923H31.781C31.9678 20.8923 32.1213 20.827 32.2416 20.6964C32.3593 20.5658 32.4207 20.4144 32.4207 20.2394V19.1687H26.5353V13.6844H42.2723V16.3743C42.2723 17.1761 42.0164 17.842 41.5046 18.3721C40.9928 18.9049 40.3352 19.1687 39.5343 19.1687H36.8987ZM41.2487 8.70947C40.737 9.24222 40.0793 9.50599 39.2784 9.50599H26.7912V1.14908H42.0164V6.71164C42.0164 7.51339 41.7605 8.17933 41.2487 8.70947ZM30.911 16.9489H37.2313C37.4181 16.9489 37.5768 16.8836 37.7047 16.753C37.8327 16.6224 37.8966 16.4709 37.8966 16.296V15.9042H30.911V16.9489ZM37.5384 3.49946H31.2692V4.41349H37.5384V3.49946ZM37.3593 6.95974C37.477 6.82916 37.5384 6.67769 37.5384 6.50272V6.24157H31.2692V7.1556H36.8987C37.0855 7.1556 37.239 7.09032 37.3593 6.95974ZM37.1034 19.8215H41.044L42.3234 23.5299H38.3828L37.1034 19.8215ZM49.9232 0V5.37976L42.9632 9.81937V4.41349L49.9232 0ZM49.9232 7.07726V12.457L42.9632 16.8966V11.4908L49.9232 7.07726ZM50 14.1023V17.21C50 17.923 49.8337 18.5863 49.501 19.1948C49.1684 19.8033 48.7027 20.2995 48.1064 20.6834L42.9632 24V18.5941L50 14.1023Z" fill="#2F54EB"/>
</svg>
